<mxfile host="app.diagrams.net" modified="2023-06-29T12:48:19.553Z" agent="Mozilla/5.0 (Windows NT 10.0; Win64; x64; rv:109.0) Gecko/20100101 Firefox/114.0" etag="9HeLvd8YObyjX1OhYPsR" version="21.5.2" type="github">
  <diagram name="Page-1" id="XnvhslWDoonpOlVDrqoQ">
    <mxGraphModel dx="921" dy="593" grid="0" gridSize="10" guides="1" tooltips="1" connect="1" arrows="1" fold="1" page="0" pageScale="1" pageWidth="850" pageHeight="1100" math="0" shadow="0">
      <root>
        <mxCell id="0" />
        <mxCell id="1" parent="0" />
        <mxCell id="Emeydzozqh8v9Cw-xT0K-1" value="User" style="swimlane;childLayout=stackLayout;horizontal=1;startSize=50;horizontalStack=0;rounded=1;fontSize=14;fontStyle=0;strokeWidth=2;resizeParent=0;resizeLast=1;shadow=0;dashed=0;align=center;arcSize=4;whiteSpace=wrap;html=1;" vertex="1" parent="1">
          <mxGeometry x="-10" y="8" width="160" height="120" as="geometry" />
        </mxCell>
        <mxCell id="Emeydzozqh8v9Cw-xT0K-2" value="&lt;div&gt;firstName&lt;/div&gt;lastName&lt;br&gt;&lt;div&gt;email&lt;/div&gt;&lt;div&gt;password&lt;br&gt;&lt;/div&gt;" style="align=left;strokeColor=none;fillColor=none;spacingLeft=4;fontSize=12;verticalAlign=top;resizable=0;rotatable=0;part=1;html=1;" vertex="1" parent="Emeydzozqh8v9Cw-xT0K-1">
          <mxGeometry y="50" width="160" height="70" as="geometry" />
        </mxCell>
        <mxCell id="Emeydzozqh8v9Cw-xT0K-6" value="Role" style="swimlane;childLayout=stackLayout;horizontal=1;startSize=50;horizontalStack=0;rounded=1;fontSize=14;fontStyle=0;strokeWidth=2;resizeParent=0;resizeLast=1;shadow=0;dashed=0;align=center;arcSize=4;whiteSpace=wrap;html=1;" vertex="1" parent="1">
          <mxGeometry x="218" y="8" width="160" height="120" as="geometry" />
        </mxCell>
        <mxCell id="Emeydzozqh8v9Cw-xT0K-7" value="&lt;div&gt;firstName&lt;/div&gt;lastName&lt;br&gt;&lt;div&gt;email&lt;/div&gt;&lt;div&gt;password&lt;br&gt;&lt;/div&gt;" style="align=left;strokeColor=none;fillColor=none;spacingLeft=4;fontSize=12;verticalAlign=top;resizable=0;rotatable=0;part=1;html=1;" vertex="1" parent="Emeydzozqh8v9Cw-xT0K-6">
          <mxGeometry y="50" width="160" height="70" as="geometry" />
        </mxCell>
      </root>
    </mxGraphModel>
  </diagram>
</mxfile>
